<svg width="36" height="36" viewBox="0 0 36 36" fill="none" xmlns="http://www.w3.org/2000/svg">
<g clip-path="url(#clip0_1_17)">
<path fill-rule="evenodd" clip-rule="evenodd" d="M35.8802 23.1702L33.4671 12.9156C32.8172 10.153 30.2709 7.31252 26.3933 7.31252H9.60698C6.76894 7.31252 3.42086 9.14092 2.53289 12.9156L0.11974 23.1702C-0.53532 25.9538 1.57763 28.6244 4.44094 28.6244C5.65767 28.6244 6.80217 27.9762 7.42757 26.9333L9.28646 23.8357C9.60424 23.3056 10.1854 22.9766 10.8034 22.9766H25.1963C25.8143 22.9766 26.3957 23.3059 26.7135 23.836L28.5721 26.933C29.1978 27.9762 30.3423 28.6244 31.5604 28.6244C34.4193 28.6244 36.5358 25.9566 35.8802 23.1702ZM13.4819 16.1991H12.2772V17.4037C12.2772 17.986 11.8051 18.4582 11.2225 18.4582C10.6402 18.4582 10.1681 17.986 10.1681 17.4037V16.1991H8.96346C8.38118 16.1991 7.90905 15.727 7.90905 15.1447C7.90905 14.5621 8.38118 14.09 8.96346 14.09H10.1681V12.8853C10.1681 12.3031 10.6402 11.8309 11.2225 11.8309C11.8051 11.8309 12.2772 12.3031 12.2772 12.8853V14.09H13.4819C14.0641 14.09 14.5363 14.5621 14.5363 15.1447C14.5363 15.727 14.0641 16.1991 13.4819 16.1991ZM22.5181 16.1991C21.9361 16.1991 21.4637 15.7267 21.4637 15.1447C21.4637 14.5624 21.9364 14.09 22.5181 14.09C23.1004 14.09 23.5728 14.5624 23.5728 15.1447C23.5728 15.7267 23.1004 16.1991 22.5181 16.1991ZM24.7775 18.4582C24.1955 18.4582 23.7228 17.9857 23.7228 17.4037C23.7228 16.8217 24.1955 16.3491 24.7775 16.3491C25.3595 16.3491 25.8319 16.8217 25.8319 17.4037C25.8319 17.9857 25.3595 18.4582 24.7775 18.4582ZM24.7775 13.94C24.1955 13.94 23.7228 13.4676 23.7228 12.8853C23.7228 12.3033 24.1955 11.8309 24.7775 11.8309C25.3595 11.8309 25.8319 12.3033 25.8319 12.8853C25.8319 13.4676 25.3595 13.94 24.7775 13.94ZM27.0365 16.1991C26.4545 16.1991 25.9818 15.7267 25.9818 15.1447C25.9818 14.5624 26.4545 14.09 27.0365 14.09C27.6185 14.09 28.0909 14.5624 28.0909 15.1447C28.0909 15.7267 27.6185 16.1991 27.0365 16.1991Z" fill="url(#paint0_linear_1_17)"/>
</g>
<defs>
<linearGradient id="paint0_linear_1_17" x1="32.76" y1="9" x2="6.58544e-07" y2="28.8" gradientUnits="userSpaceOnUse">
<stop stop-color="#297FD9"/>
<stop offset="0.9999" stop-color="#65DFC9"/>
<stop offset="1" stop-opacity="0"/>
</linearGradient>
<clipPath id="clip0_1_17">
<rect width="36" height="36" fill="white"/>
</clipPath>
</defs>
</svg>
