<svg width="36" height="36" viewBox="0 0 36 36" fill="none" xmlns="http://www.w3.org/2000/svg">
<path d="M34.9453 5.34375H33.8906V27.4922C33.8906 29.2369 32.401 30.6562 30.6562 30.6562H20.9839C20.5482 31.884 19.375 32.7656 18 32.7656C16.625 32.7656 15.4519 31.884 15.0161 30.6562H5.34375C3.59902 30.6562 2.10938 29.2369 2.10938 27.4922V5.34375H1.05469C0.471727 5.34375 0 5.81548 0 6.39844V31.7109C0 32.2939 0.471727 32.7656 1.05469 32.7656H12.9068C13.3424 33.9934 14.5156 34.875 15.8906 34.875H20.1094C21.4844 34.875 22.6575 33.9934 23.0932 32.7656H34.9453C35.5283 32.7656 36 32.2939 36 31.7109V6.39844C36 5.81548 35.5283 5.34375 34.9453 5.34375Z" fill="url(#paint0_linear_1_28)"/>
<path d="M16.9453 27.7741V3.582C15.4855 2.36201 13.1414 1.125 9.5625 1.125C8.97954 1.125 8.50781 1.59673 8.50781 2.17969V23.2734C8.50781 23.8564 8.97954 24.3281 9.5625 24.3281C14.4411 24.3281 16.4755 27.0265 16.9453 27.7741Z" fill="url(#paint1_linear_1_28)"/>
<path d="M30.6562 28.5469C31.2392 28.5469 31.7109 28.0751 31.7109 27.4922V4.28906C31.7109 3.7061 31.2392 3.23438 30.6562 3.23438H22.2188C21.0271 3.23438 19.9388 3.64676 19.0547 4.31599V29.6016C19.0547 29.0197 19.5275 28.5469 20.1094 28.5469H30.6562Z" fill="url(#paint2_linear_1_28)"/>
<path d="M5.34375 3.23438C4.76079 3.23438 4.28906 3.7061 4.28906 4.28906V27.4922C4.28906 28.0751 4.76079 28.5469 5.34375 28.5469H14.8956C14.3049 27.8309 12.7558 26.4375 9.5625 26.4375C7.81777 26.4375 6.39844 25.0182 6.39844 23.2734V3.23438H5.34375Z" fill="url(#paint3_linear_1_28)"/>
<defs>
<linearGradient id="paint0_linear_1_28" x1="18" y1="5.34375" x2="18" y2="34.875" gradientUnits="userSpaceOnUse">
<stop stop-color="#297FD9"/>
<stop offset="1" stop-color="#65DFC9"/>
</linearGradient>
<linearGradient id="paint1_linear_1_28" x1="12.7266" y1="1.125" x2="12.7266" y2="27.7741" gradientUnits="userSpaceOnUse">
<stop stop-color="#297FD9"/>
<stop offset="1" stop-color="#65DFC9"/>
</linearGradient>
<linearGradient id="paint2_linear_1_28" x1="25.3828" y1="3.23437" x2="25.3828" y2="29.6016" gradientUnits="userSpaceOnUse">
<stop stop-color="#297FD9"/>
<stop offset="1" stop-color="#65DFC9"/>
</linearGradient>
<linearGradient id="paint3_linear_1_28" x1="9.59231" y1="3.23437" x2="9.59231" y2="28.5469" gradientUnits="userSpaceOnUse">
<stop stop-color="#297FD9"/>
<stop offset="1" stop-color="#65DFC9"/>
</linearGradient>
</defs>
</svg>
