<svg width="36" height="36" viewBox="0 0 36 36" fill="none" xmlns="http://www.w3.org/2000/svg">
<path d="M34.162 9.56433C33.7731 8.11847 32.6331 6.9787 31.1874 6.58937C28.5464 5.86675 17.982 5.86675 17.982 5.86675C17.982 5.86675 7.41804 5.86675 4.77699 6.56198C3.35914 6.95089 2.19136 8.11867 1.80244 9.56433C1.10742 12.2052 1.10742 17.6819 1.10742 17.6819C1.10742 17.6819 1.10742 23.1863 1.80244 25.7995C2.19177 27.2452 3.33133 28.3849 4.7772 28.7743C7.44585 29.4971 17.9824 29.4971 17.9824 29.4971C17.9824 29.4971 28.5464 29.4971 31.1874 28.8019C32.6333 28.4128 33.7731 27.273 34.1624 25.8273C34.8572 23.1863 34.8572 17.7097 34.8572 17.7097C34.8572 17.7097 34.885 12.2052 34.162 9.56433ZM14.6185 22.7415V12.6223L23.4033 17.6819L14.6185 22.7415Z" fill="url(#paint0_linear_1_15)"/>
<defs>
<linearGradient id="paint0_linear_1_15" x1="32.04" y1="7.2" x2="1.44" y2="29.52" gradientUnits="userSpaceOnUse">
<stop stop-color="#297FD9"/>
<stop offset="1" stop-color="#65DFC9"/>
</linearGradient>
</defs>
</svg>
